<svg xmlns="http://www.w3.org/2000/svg" fill="snone" viewBox="0 0 32 32"><path fill="#E8B57E" d="M30.1 6.7 28.8 9l-5.6 2.4-.3.1-5 4.7-.2.3c0-.1 0-.2-.3-.3L15 14.5l-1.8-1.1L8 12l-4.3-1L1 6.6 11.2 4l3.5 5.2.1.1.1.3v-.1l.1-.1a.8.8 0 0 1 0-.2l3.2-4.6 12 2v.1z"/><path fill="url(#c)" d="m15 14.5-2-1.1L8 12l6.9-2.4v5z"/><path fill="#dbac76" d="m14.9 9.6-7 2.4-.5-.1-3.7-1L1 6.7 11.2 4l3.5 5.2.1.1.1.3z"/><path fill="#dbac76" d="m15 9.8-6.6 2.3-1-.2 7.3-2.7.1.1.1.3v.2z"/><path fill="#D1A578" d="M3.8 11h-.1L1 6.6 3.8 11z"/><path fill="url(#f)" d="m23.2 11.4-.3.1-5 4.7-.2.3c0-.1 0-.2-.3-.3L15 14.5v-5l8.3 1.9z"/><path fill="#dbac76" d="M30.1 6.7 28.8 9l-5.1 2.2-.5.2L15 9.6a.8.8 0 0 1 0-.4l3.2-4.6 12 2v.1z"/><path fill="#BF9064" d="m17.5 28-12-4.5v-.2l-.6-10.2v-.2L0 10l13.1 3.3 4.3 2.8c.2 0 .2.2.2.3h.1l.2-.3 5-4.7 9-3.8h.1L27.1 12l-.1.3-.5 10-.1.1-8.8 5.6z"/><path fill="#BE8F63" d="M17.7 16.5 17.6 28l-12-4.5-.1-.2-.6-10.2 12.7 3.4z"/><path fill="#dbac76" d="m17.7 16.5-.1.1-12.7-3.5v-.2L0 10l13.1 3.3 4.3 2.8a.3.3 0 0 1 .2.3z"/><path fill="url(#l)" d="M12 17.6v-2.5c0-.1 0-.3-.2-.3L7.2 12l-2.1-.6 4.7 2.8v.3L10 17l2 .6z"/><path fill="#D4A271" d="m17.7 16.5-.1.1c0-.1 0-.3-.2-.3l-4.3-2.8v-.1l4.3 2.8a.3.3 0 0 1 .2.3z"/><path fill="#DEB37E" d="M13.1 13.4 0 10.2l13.1 3.3z"/><path fill="#DBAC76" d="m27 12.3-.5 10-.1.1-8.8 5.6V16.5h.1l9.3-4.2z"/><path fill="#CE9C6B" d="m27.1 12-.1.3-9.2 4.3-.1-.1v-.1a.7.7 0 0 1 .2-.2l5-4.7 9-3.8h.1L27.1 12z"/><path fill="#D7A977" d="m23 11.6-5 4.6-.2.4-.1-.1v-.1l.2-.2 5-4.7v.1z"/><path fill="url(#n)" d="m21.9 17.2 1.5-.8V14l.2-.4 5-4.4-1.5.6-5 4.5-.2.4v2.5z"/><path fill="#F8CE92" d="m23 11.6 9-3.9-9.1 3.8v.1z"/><defs><linearGradient id="c" x1="12.7" x2="15.1" y1="11.3" y2="12.3" gradientUnits="userSpaceOnUse"><stop offset=".4"/><stop offset=".4"/><stop offset=".6"/><stop offset=".8"/></linearGradient><linearGradient id="f" x1="18.8" x2="16.8" y1="10.9" y2="15.7" gradientUnits="userSpaceOnUse"><stop offset=".1"/><stop offset=".4"/><stop offset=".8"/></linearGradient><linearGradient id="l" x1="11.8" x2="6.2" y1="16.9" y2="10.7" gradientUnits="userSpaceOnUse"><stop offset=".4"/><stop offset=".4"/><stop offset=".4"/><stop offset=".9"/><stop offset=".9"/></linearGradient><linearGradient id="n" x1="24.2" x2="25.9" y1="17.3" y2="8.9" gradientUnits="userSpaceOnUse"><stop offset=".4"/><stop offset=".4"/><stop offset=".4"/><stop offset=".6"/><stop offset=".6"/></linearGradient></defs></svg>